<svg xmlns="http://www.w3.org/2000/svg" width="1706.667" height="1706.667" viewBox="0 0 1280 1280" preserveAspectRatio="xMidYMid meet"><path d="M586 .8c0 .4-2.9 17.4-6.5 37.7l-13.1 75-6.9 38.3c-.1.1-6.1 1.4-13.3 2.7-23.3 4.5-46.7 10.8-69.1 18.7-11 3.8-11.4 3.9-13.1 2.1-.9-1-22.5-26.8-48-57.3l-48-57.3c-1.6-1.7-3.8-.5-47.6 24.8l-46.2 27.4c-.2.5 11.5 33.2 25.9 72.7l26.2 71.7-4 3.6c-28.9 26.1-33.3 30.4-61.4 61.5l-3.6 3.9-70.4-25.7-72.6-25.9c-1.9-.2-5.8 6.1-28.8 45.7-25.3 43.8-26.5 46-24.8 47.6 1 1 27 22.8 57.8 48.5l57.3 47.9c1 1 .5 3.5-2.7 12.7-8.5 24.9-14.1 45.6-18.5 68.8-1.4 7.4-2.7 13.5-2.8 13.6-.2.1-17.4 3.2-38.3 6.9L.8 586c-.4 0-.8 24.3-.8 54l.8 54c.4 0 17.4 2.9 37.7 6.5l75 13.1 38.3 6.9c.1.1 1.4 6.2 2.8 13.6 4.4 23.2 10 43.9 18.5 68.8 3.2 9.2 3.7 11.7 2.7 12.7l-57.3 47.9L60.7 912c-1.7 1.6-.5 3.8 24.8 47.6 23 39.6 26.9 45.9 28.8 45.7 1.2-.1 33.9-11.7 72.6-25.9l70.4-25.7 3.6 3.9c28.1 31.1 32.5 35.4 61.4 61.5l4 3.6-26.2 71.7-25.9 72.7c.2.5 21 12.8 46.2 27.4 43.8 25.3 46 26.5 47.6 24.8 1-1 22.5-26.8 48-57.3l48-57.3c1.7-1.8 2.1-1.7 13.1 2.1 22.4 7.9 45.8 14.2 69.1 18.7 7.2 1.3 13.2 2.6 13.3 2.7.1.2 3.2 17.4 6.9 38.3l13.1 75 6.5 37.7c0 .4 24.2.8 53.8.8h53.8l5.2-29.2 13.3-75.8 8.4-46.8c.1-.1 6.9-1.6 15.1-3.2 25.4-5 42-9.4 67.3-18.1 9.2-3.2 11.7-3.7 12.7-2.7l47.9 57.3 48.5 57.8c1.6 1.7 3.8.5 47.6-24.8l46.2-27.4c.2-.7-16.3-46.5-46.5-129l-5.7-15.4 6.5-5.6c21.7-19 38.4-35.6 57-57l5.5-6.4 18.5 6.7 125.7 45.6c.5 0 9.4-14.7 19.8-32.7l26.6-46.2c6.3-10.8 7.6-13.7 6.6-14.6-.7-.7-26.7-22.5-57.8-48.5l-57.8-48.4c-1-1-.5-3.5 2.7-12.7 8.4-24.6 15-49.1 19.1-71.2 1.2-6.4 2.6-11.7 3-11.7s22.7-3.8 49.6-8.5l74.4-13 26.2-4.5c.5 0 .8-24.3.8-54s-.4-54-.8-54-17.2-2.9-37.2-6.4l-113.9-20-2.1-11.5c-4.1-21.9-10.7-46.5-19.1-71-3.2-9.2-3.7-11.7-2.7-12.7L1162 416l57.8-48.5c1-.9-.3-3.8-6.6-14.6l-26.6-46.2c-10.4-18-19.3-32.7-19.8-32.7-.7 0-54.9 19.6-125.7 45.6l-18.5 6.7-5.5-6.4c-18.6-21.4-35.3-38-57-57l-6.5-5.6 5.7-15.4 46.5-129c-.2-.5-21-12.8-46.2-27.4-43.8-25.3-46-26.5-47.6-24.8-1 1-22.8 27-48.5 57.8l-47.9 57.3c-1 1-3.5.5-12.7-2.7-25.3-8.7-41.9-13.1-67.3-18.1-8.2-1.6-15-3.1-15.1-3.2-.2-.2-4-21.2-8.4-46.8l-13.3-75.8L693.6 0h-53.8c-29.6 0-53.8.4-53.8.8zm74.5 261.6c67.8 2.4 140.5 27.7 198.5 69 35.8 25.4 67.5 57.6 92.4 93.6 37.3 53.8 59.8 116.1 65.7 182 1.4 16.1 1.4 49.9 0 66-9.4 103.9-60.1 198.3-141.6 263.2-49.3 39.3-109.5 66.2-171.5 76.7-24.6 4.2-30 4.6-64 4.6s-39.4-.4-64-4.6C458.3 993 355.7 917 302 809.9c-29.5-58.7-42.5-119.8-39.8-187C267 503 330.2 391.3 431 324.6c50.2-33.2 104.6-53.1 165.8-60.6 9.6-1.2 40.5-2.8 45.7-2.3 1.7.1 9.8.5 18 .7z" fill="#fff"/></svg>